<?xml version="1.0" encoding="UTF-8" standalone="no"?><!DOCTYPE svg PUBLIC "-//W3C//DTD SVG 1.1//EN" "http://www.w3.org/Graphics/SVG/1.1/DTD/svg11.dtd"><svg width="100%" height="100%" viewBox="0 0 1561 168" version="1.1" xmlns="http://www.w3.org/2000/svg" xmlns:xlink="http://www.w3.org/1999/xlink" xml:space="preserve" xmlns:serif="http://www.serif.com/" style="fill-rule:evenodd;clip-rule:evenodd;stroke-linejoin:round;stroke-miterlimit:1.41421;"><rect id="grass" x="0" y="0" width="1561" height="168" style="fill:none;"/><clipPath id="_clip1"><rect x="0" y="0" width="1561" height="168"/></clipPath><g clip-path="url(#_clip1)"><g id="Grass"><path d="M1473.44,147.72l-8.457,0l-1364.87,0c0,0 -21.604,-55.135 -4.697,-107.419c0,0 -0.938,45.628 24.424,71.295c0,0 -1.879,-61.789 24.423,-88.406c0,0 -8.454,65.592 4.697,83.654c0,0 25.363,-48.482 14.089,-91.259c0,0 29.121,31.37 31,81.752c0,0 -7.515,-50.382 16.909,-73.196c0,0 -7.515,65.591 9.392,79.85c0,0 0,-62.739 8.455,-79.85c0,0 2.817,73.196 23.483,85.554c0,0 -14.09,-76.048 15.969,-98.864c0,0 -9.393,67.494 5.637,93.16c0,0 -8.455,-50.381 -33.817,-73.196c0,0 26.302,4.752 45.089,56.085c0,0 2.818,-68.444 36.634,-76.049c0,0 -25.362,36.124 -6.575,68.444c0,0 -2.819,-47.529 16.909,-61.788c0,0 -8.455,56.085 7.514,76.047c0,0 -0.939,-42.777 12.212,-58.937c0,0 -3.757,46.58 11.272,67.493c0,0 -13.151,-68.443 32.877,-96.011c0,0 -28.18,59.888 -14.09,94.111c0,0 11.272,-52.284 -17.848,-94.111c0,0 37.574,5.703 36.635,90.308c0,0 0.939,-40.876 24.422,-56.086c0,0 -15.029,46.579 2.819,66.543c0,0 21.604,-50.382 -1.879,-92.21c0,0 30.06,30.42 30.06,85.556c0,0 -2.818,-59.889 15.968,-83.654c0,0 -6.576,57.036 5.636,81.752c0,0 8.454,-27.568 4.697,-61.79c0,0 22.545,9.507 17.848,68.444c0,0 -3.757,-57.987 27.241,-75.098c0,0 -22.544,48.481 -0.94,77c0,0 -6.575,-57.987 21.606,-96.013c0,0 -20.666,57.037 -4.697,94.111c0,0 11.094,-14.769 4.697,-49.431c0,0 18.786,19.962 18.786,56.085c0,0 13.151,-76.049 64.815,-105.517c0,0 -33.816,46.58 -30.998,101.715c0,0 19.726,-49.432 -0.939,-101.715c0,0 35.695,25.667 35.695,95.061c0,0 13.151,-71.296 36.634,-84.604c0,0 -16.908,50.382 -1.878,75.098c0,0 15.03,-19.964 11.272,-48.482c0,0 15.969,18.062 10.333,54.185c0,0 19.726,-72.246 56.361,-96.962c0,0 -23.484,63.69 -20.666,105.518c0,0 15.03,-47.531 49.786,-60.839c0,0 -18.787,36.123 -10.333,59.888c0,0 13.656,-36.77 -9.394,-64.641c0,0 21.606,8.556 28.181,52.284c0,0 6.575,-47.531 43.21,-64.642c0,0 -23.484,48.481 -14.09,92.209c0,0 27.241,-44.679 32.877,-77.95c0,0 6.575,22.814 0,52.283c0,0 32.877,-37.073 27.241,-76.998c0,0 15.969,44.677 1.878,93.159c0,0 30.06,-66.543 57.301,-82.703c0,0 -25.363,54.185 -17.847,84.604c0,0 22.544,-32.321 25.362,-65.592c0,0 11.272,19.012 6.576,52.284c0,0 16.907,-56.087 54.481,-66.543c0,0 -19.726,30.419 -9.393,69.394c0,0 32.877,-42.777 13.151,-95.061c0,0 34.755,31.371 20.666,103.617c0,0 14.089,-45.63 43.209,-60.839c0,0 -20.665,33.271 -4.697,57.987c0,0 30.06,-36.124 11.273,-88.407c0,0 30.059,5.704 20.665,94.111c0,0 14.091,-60.839 39.456,-76.049c0,0 -14.092,46.58 0.941,72.246c0,0 0,-65.592 42.264,-88.407c0,0 -21.608,38.025 -12.21,77c0,0 21.608,-46.58 57.296,-57.036c0,0 -35.688,44.677 -29.113,73.197c0,0 47.909,-24.717 42.264,-72.247c0,0 15.973,33.271 7.516,69.394c0,0 24.431,-44.678 23.49,-75.098c0,0 9.387,35.172 0,73.197c0,0 20.667,-77.949 48.839,-90.308c0,0 -25.36,56.086 -16.903,92.209c0,0 34.759,-55.134 27.242,-111.221c0,0 30.995,44.679 17.845,120.728c0,0 24.419,-78.901 62.941,-95.061c0,0 -26.301,50.382 -25.371,82.703c0,0 31.006,-24.716 31.947,-57.988c0,0 11.269,34.223 4.693,62.741c0,0 35.7,-57.036 31.936,-91.259c0,0 16.914,33.272 7.516,74.148c0,0 34.759,-25.667 48.851,-55.135c0,0 11.269,54.184 -35.7,106.468Z" style="fill:#214e32;fill-rule:nonzero;"/><path d="M87.554,168l1373.33,0c0,0 21.608,-55.136 4.694,-107.419c0,0 0.941,45.629 -24.42,71.295c0,0 1.882,-61.79 -24.419,-88.406c0,0 8.457,65.591 -4.705,83.653c0,0 -25.36,-48.481 -14.081,-91.258c0,0 -29.124,31.369 -31.006,81.752c0,0 7.517,-50.383 -16.903,-73.197c0,0 7.516,65.592 -9.398,79.851c0,0 0,-62.739 -8.446,-79.851c0,0 -2.823,73.197 -23.49,85.554c0,0 14.092,-76.047 -15.973,-98.862c0,0 9.398,67.492 -5.635,93.159c0,0 8.457,-50.382 33.818,-73.196c0,0 -26.301,4.752 -45.087,56.085c0,0 -2.822,-68.443 -36.629,-76.048c0,0 25.36,36.122 6.575,68.443c0,0 2.812,-47.53 -16.914,-61.789c0,0 8.457,56.086 -7.516,76.049c0,0 0.941,-42.778 -12.21,-58.937c0,0 3.763,46.578 -11.269,67.492c0,0 13.151,-68.443 -32.878,-96.012c0,0 28.184,59.889 14.093,94.111c0,0 -11.28,-52.284 17.844,-94.111c0,0 -37.57,5.704 -36.64,90.308c0,0 -0.93,-40.876 -24.42,-56.085c0,0 15.032,46.579 -2.812,66.542c0,0 -21.609,-50.383 1.871,-92.209c0,0 -30.055,30.42 -30.055,85.555c0,0 2.817,-59.888 -15.969,-83.653c0,0 6.575,57.036 -5.637,81.752c0,0 -8.454,-27.569 -4.697,-61.79c0,0 -22.544,9.506 -17.847,68.444c0,0 3.758,-57.988 -27.242,-75.098c0,0 22.545,48.48 0.94,76.999c0,0 6.576,-57.988 -21.605,-96.011c0,0 20.665,57.036 4.696,94.11c0,0 -11.093,-14.769 -4.696,-49.432c0,0 -18.787,19.963 -18.787,56.086c0,0 -13.15,-76.049 -64.815,-105.518c0,0 33.817,46.58 30.999,101.716c0,0 -19.726,-49.432 0.938,-101.716c0,0 -35.695,25.667 -35.695,95.062c0,0 -13.15,-71.296 -36.634,-84.604c0,0 16.908,50.381 1.879,75.098c0,0 -15.029,-19.964 -11.272,-48.482c0,0 -15.969,18.062 -10.334,54.185c0,0 -19.726,-72.246 -56.361,-96.962c0,0 23.484,63.69 20.666,105.518c0,0 -15.029,-47.531 -49.785,-60.839c0,0 18.787,36.122 10.333,59.888c0,0 -13.656,-36.771 9.394,-64.641c0,0 -21.606,8.554 -28.181,52.283c0,0 -6.576,-47.53 -43.211,-64.642c0,0 23.485,48.482 14.091,92.21c0,0 -27.241,-44.679 -32.877,-77.951c0,0 -6.575,22.815 0,52.284c0,0 -32.878,-37.074 -27.241,-76.999c0,0 -15.969,44.679 -1.879,93.159c0,0 -30.059,-66.542 -57.301,-82.703c0,0 25.363,54.185 17.848,84.605c0,0 -22.544,-32.321 -25.362,-65.593c0,0 -11.272,19.013 -6.576,52.284c0,0 -16.908,-56.086 -54.481,-66.542c0,0 19.726,30.418 9.392,69.394c0,0 -32.877,-42.777 -13.151,-95.061c0,0 -34.755,31.37 -20.664,103.616c0,0 -14.091,-45.629 -43.211,-60.839c0,0 20.666,33.272 4.697,57.988c0,0 -30.059,-36.124 -11.272,-88.407c0,0 -30.06,5.704 -20.666,94.11c0,0 -14.09,-60.839 -39.453,-76.048c0,0 14.09,46.58 -0.939,72.245c0,0 0,-65.591 -42.27,-88.406c0,0 21.604,38.025 12.211,77c0,0 -21.605,-46.58 -57.3,-57.036c0,0 35.695,44.678 29.12,73.196c0,0 -47.908,-24.716 -42.271,-72.247c0,0 -15.969,33.272 -7.515,69.395c0,0 -24.423,-44.679 -23.484,-75.098c0,0 -9.394,35.172 0,73.196c0,0 -20.666,-77.949 -48.846,-90.307c0,0 25.363,56.086 16.909,92.209c0,0 -34.757,-55.136 -27.242,-111.221c0,0 -30.999,44.679 -17.847,120.727c0,0 -24.424,-78.901 -62.936,-95.06c0,0 26.301,50.382 25.361,82.703c0,0 -30.998,-24.716 -31.938,-57.988c0,0 -11.272,34.222 -4.696,62.74c0,0 -35.696,-57.037 -31.939,-91.258c0,0 -16.908,33.271 -7.514,74.147c0,0 -34.756,-25.667 -48.847,-55.134c0,0 -11.272,54.183 35.695,106.468Z" style="fill:#3b971e;fill-rule:nonzero;"/><path d="M1460.29,168l-8.457,0l-1364.87,0c0,0 -21.604,-55.136 -4.696,-107.419c0,0 -0.939,45.629 24.422,71.295c0,0 -1.878,-61.79 24.424,-88.406c0,0 -8.454,65.591 4.697,83.653c0,0 25.363,-48.481 14.091,-91.258c0,0 29.12,31.369 30.998,81.752c0,0 -7.515,-50.383 16.908,-73.197c0,0 -7.514,65.592 9.394,79.851c0,0 0,-62.739 8.453,-79.851c0,0 2.819,73.197 23.485,85.554c0,0 -14.091,-76.047 15.969,-98.862c0,0 -9.394,67.492 5.635,93.159c0,0 -8.454,-50.382 -33.816,-73.196c0,0 26.302,4.752 45.088,56.085c0,0 2.819,-68.443 36.635,-76.048c0,0 -25.362,36.122 -6.576,68.443c0,0 -2.817,-47.53 16.91,-61.789c0,0 -8.455,56.086 7.514,76.049c0,0 -0.939,-42.778 12.212,-58.937c0,0 -3.758,46.578 11.272,67.492c0,0 -13.151,-68.443 32.877,-96.012c0,0 -28.18,59.889 -14.091,94.111c0,0 11.273,-52.284 -17.847,-94.111c0,0 37.575,5.704 36.635,90.308c0,0 0.94,-40.876 24.423,-56.085c0,0 -15.03,46.579 2.818,66.542c0,0 21.605,-50.383 -1.878,-92.209c0,0 30.058,30.42 30.058,85.555c0,0 -2.817,-59.888 15.969,-83.653c0,0 -6.575,57.036 5.637,81.752c0,0 8.454,-27.569 4.697,-61.79c0,0 22.544,9.506 17.847,68.444c0,0 -3.758,-57.988 27.241,-75.098c0,0 -22.544,48.48 -0.939,76.999c0,0 -6.576,-57.988 21.604,-96.011c0,0 -20.665,57.036 -4.696,94.11c0,0 11.094,-14.769 4.696,-49.432c0,0 18.788,19.963 18.788,56.086c0,0 13.15,-76.049 64.814,-105.518c0,0 -33.816,46.58 -30.998,101.716c0,0 19.726,-49.432 -0.941,-101.716c0,0 35.698,25.667 35.698,95.062c0,0 13.15,-71.296 36.633,-84.604c0,0 -16.907,50.381 -1.878,75.098c0,0 15.029,-19.964 11.272,-48.482c0,0 15.969,18.062 10.334,54.185c0,0 19.726,-72.246 56.359,-96.962c0,0 -23.483,63.69 -20.664,105.518c0,0 15.029,-47.531 49.785,-60.839c0,0 -18.787,36.122 -10.333,59.888c0,0 13.655,-36.771 -9.394,-64.641c0,0 21.606,8.554 28.181,52.283c0,0 6.576,-47.53 43.21,-64.642c0,0 -23.484,48.482 -14.09,92.21c0,0 27.241,-44.679 32.877,-77.951c0,0 6.575,22.815 0,52.284c0,0 32.878,-37.074 27.241,-76.999c0,0 15.969,44.679 1.879,93.159c0,0 30.059,-66.542 57.3,-82.703c0,0 -25.362,54.185 -17.847,84.605c0,0 22.544,-32.321 25.361,-65.593c0,0 11.273,19.013 6.576,52.284c0,0 16.909,-56.086 54.482,-66.542c0,0 -19.726,30.418 -9.393,69.394c0,0 32.877,-42.777 13.151,-95.061c0,0 34.756,31.37 20.665,103.616c0,0 14.091,-45.629 43.211,-60.839c0,0 -20.666,33.272 -4.697,57.988c0,0 30.059,-36.124 11.272,-88.407c0,0 30.059,5.704 20.666,94.11c0,0 14.09,-60.839 39.455,-76.048c0,0 -14.093,46.58 0.941,72.245c0,0 0,-65.591 42.264,-88.406c0,0 -21.608,38.025 -12.21,77c0,0 21.608,-46.58 57.297,-57.036c0,0 -35.689,44.678 -29.114,73.196c0,0 47.91,-24.716 42.264,-72.247c0,0 15.974,33.272 7.517,69.395c0,0 24.43,-44.679 23.489,-75.098c0,0 9.387,35.172 0,73.196c0,0 20.667,-77.949 48.84,-90.307c0,0 -25.361,56.086 -16.904,92.209c0,0 34.759,-55.136 27.243,-111.221c0,0 30.995,44.679 17.844,120.727c0,0 24.419,-78.901 62.942,-95.06c0,0 -26.302,50.382 -25.372,82.703c0,0 31.006,-24.716 31.947,-57.988c0,0 11.269,34.222 4.694,62.74c0,0 35.699,-57.037 31.935,-91.258c0,0 16.915,33.271 7.517,74.147c0,0 34.758,-25.667 48.85,-55.134c0,0 11.269,54.183 -35.7,106.468Z" style="fill:#007800;fill-rule:nonzero;"/></g><g id="Grass1" serif:id="Grass"><clipPath id="_clip2"><rect x="0" y="0.375" width="278.217" height="167.625"/></clipPath><g clip-path="url(#_clip2)"><path d="M639.442,147.72l-8.457,0l-1364.87,0c0,0 -21.604,-55.135 -4.697,-107.419c0,0 -0.938,45.628 24.424,71.295c0,0 -1.879,-61.789 24.423,-88.406c0,0 -8.454,65.592 4.697,83.654c0,0 25.363,-48.482 14.089,-91.259c0,0 29.121,31.37 31,81.752c0,0 -7.515,-50.382 16.909,-73.196c0,0 -7.515,65.591 9.392,79.85c0,0 0,-62.739 8.455,-79.85c0,0 2.817,73.196 23.483,85.554c0,0 -14.09,-76.048 15.969,-98.864c0,0 -9.393,67.494 5.637,93.16c0,0 -8.455,-50.381 -33.817,-73.196c0,0 26.302,4.752 45.089,56.085c0,0 2.818,-68.444 36.634,-76.049c0,0 -25.362,36.124 -6.575,68.444c0,0 -2.819,-47.529 16.909,-61.788c0,0 -8.455,56.085 7.514,76.047c0,0 -0.939,-42.777 12.212,-58.937c0,0 -3.757,46.58 11.272,67.493c0,0 -13.151,-68.443 32.877,-96.011c0,0 -28.18,59.888 -14.09,94.111c0,0 11.272,-52.284 -17.848,-94.111c0,0 37.574,5.703 36.635,90.308c0,0 0.939,-40.876 24.422,-56.086c0,0 -15.029,46.579 2.819,66.543c0,0 21.604,-50.382 -1.879,-92.21c0,0 30.06,30.42 30.06,85.556c0,0 -2.818,-59.889 15.968,-83.654c0,0 -6.576,57.036 5.636,81.752c0,0 8.454,-27.568 4.697,-61.79c0,0 22.545,9.507 17.848,68.444c0,0 -3.757,-57.987 27.241,-75.098c0,0 -22.544,48.481 -0.94,77c0,0 -6.575,-57.987 21.606,-96.013c0,0 -20.666,57.037 -4.697,94.111c0,0 11.094,-14.769 4.697,-49.431c0,0 18.786,19.962 18.786,56.085c0,0 13.151,-76.049 64.815,-105.517c0,0 -33.816,46.58 -30.998,101.715c0,0 19.726,-49.432 -0.939,-101.715c0,0 35.695,25.667 35.695,95.061c0,0 13.151,-71.296 36.634,-84.604c0,0 -16.908,50.382 -1.878,75.098c0,0 15.03,-19.964 11.272,-48.482c0,0 15.969,18.062 10.333,54.185c0,0 19.726,-72.246 56.361,-96.962c0,0 -23.484,63.69 -20.666,105.518c0,0 15.03,-47.531 49.786,-60.839c0,0 -18.787,36.123 -10.333,59.888c0,0 13.656,-36.77 -9.394,-64.641c0,0 21.606,8.556 28.181,52.284c0,0 6.575,-47.531 43.21,-64.642c0,0 -23.484,48.481 -14.09,92.209c0,0 27.241,-44.679 32.877,-77.95c0,0 6.575,22.814 0,52.283c0,0 32.877,-37.073 27.241,-76.998c0,0 15.969,44.677 1.878,93.159c0,0 30.06,-66.543 57.301,-82.703c0,0 -25.363,54.185 -17.847,84.604c0,0 22.544,-32.321 25.362,-65.592c0,0 11.272,19.012 6.576,52.284c0,0 16.907,-56.087 54.481,-66.543c0,0 -19.726,30.419 -9.393,69.394c0,0 32.877,-42.777 13.151,-95.061c0,0 34.755,31.371 20.666,103.617c0,0 14.089,-45.63 43.209,-60.839c0,0 -20.665,33.271 -4.697,57.987c0,0 30.06,-36.124 11.273,-88.407c0,0 30.059,5.704 20.665,94.111c0,0 14.091,-60.839 39.456,-76.049c0,0 -14.092,46.58 0.941,72.246c0,0 0,-65.592 42.264,-88.407c0,0 -21.608,38.025 -12.21,77c0,0 21.608,-46.58 57.296,-57.036c0,0 -35.688,44.677 -29.113,73.197c0,0 47.909,-24.717 42.264,-72.247c0,0 15.973,33.271 7.516,69.394c0,0 24.431,-44.678 23.49,-75.098c0,0 9.387,35.172 0,73.197c0,0 20.667,-77.949 48.839,-90.308c0,0 -25.36,56.086 -16.903,92.209c0,0 34.759,-55.134 27.242,-111.221c0,0 30.995,44.679 17.845,120.728c0,0 24.419,-78.901 62.941,-95.061c0,0 -26.301,50.382 -25.371,82.703c0,0 31.006,-24.716 31.947,-57.988c0,0 11.269,34.223 4.693,62.741c0,0 35.7,-57.036 31.936,-91.259c0,0 16.914,33.272 7.516,74.148c0,0 34.759,-25.667 48.851,-55.135c0,0 11.269,54.184 -35.7,106.468Z" style="fill:#214e32;fill-rule:nonzero;"/><path d="M-746.446,168l1373.33,0c0,0 21.608,-55.136 4.694,-107.419c0,0 0.941,45.629 -24.42,71.295c0,0 1.882,-61.79 -24.419,-88.406c0,0 8.457,65.591 -4.705,83.653c0,0 -25.36,-48.481 -14.081,-91.258c0,0 -29.124,31.369 -31.006,81.752c0,0 7.517,-50.383 -16.903,-73.197c0,0 7.516,65.592 -9.398,79.851c0,0 0,-62.739 -8.446,-79.851c0,0 -2.823,73.197 -23.49,85.554c0,0 14.092,-76.047 -15.973,-98.862c0,0 9.398,67.492 -5.635,93.159c0,0 8.457,-50.382 33.818,-73.196c0,0 -26.301,4.752 -45.087,56.085c0,0 -2.822,-68.443 -36.629,-76.048c0,0 25.36,36.122 6.575,68.443c0,0 2.812,-47.53 -16.914,-61.789c0,0 8.457,56.086 -7.516,76.049c0,0 0.941,-42.778 -12.21,-58.937c0,0 3.763,46.578 -11.269,67.492c0,0 13.151,-68.443 -32.878,-96.012c0,0 28.184,59.889 14.093,94.111c0,0 -11.28,-52.284 17.844,-94.111c0,0 -37.57,5.704 -36.64,90.308c0,0 -0.93,-40.876 -24.42,-56.085c0,0 15.032,46.579 -2.812,66.542c0,0 -21.609,-50.383 1.871,-92.209c0,0 -30.055,30.42 -30.055,85.555c0,0 2.817,-59.888 -15.969,-83.653c0,0 6.575,57.036 -5.637,81.752c0,0 -8.454,-27.569 -4.697,-61.79c0,0 -22.544,9.506 -17.847,68.444c0,0 3.758,-57.988 -27.242,-75.098c0,0 22.545,48.48 0.94,76.999c0,0 6.576,-57.988 -21.605,-96.011c0,0 20.665,57.036 4.696,94.11c0,0 -11.093,-14.769 -4.696,-49.432c0,0 -18.787,19.963 -18.787,56.086c0,0 -13.15,-76.049 -64.815,-105.518c0,0 33.817,46.58 30.999,101.716c0,0 -19.726,-49.432 0.938,-101.716c0,0 -35.695,25.667 -35.695,95.062c0,0 -13.15,-71.296 -36.634,-84.604c0,0 16.908,50.381 1.879,75.098c0,0 -15.029,-19.964 -11.272,-48.482c0,0 -15.969,18.062 -10.334,54.185c0,0 -19.726,-72.246 -56.361,-96.962c0,0 23.484,63.69 20.666,105.518c0,0 -15.029,-47.531 -49.785,-60.839c0,0 18.787,36.122 10.333,59.888c0,0 -13.656,-36.771 9.394,-64.641c0,0 -21.606,8.554 -28.181,52.283c0,0 -6.576,-47.53 -43.211,-64.642c0,0 23.485,48.482 14.091,92.21c0,0 -27.241,-44.679 -32.877,-77.951c0,0 -6.575,22.815 0,52.284c0,0 -32.878,-37.074 -27.241,-76.999c0,0 -15.969,44.679 -1.879,93.159c0,0 -30.059,-66.542 -57.301,-82.703c0,0 25.363,54.185 17.848,84.605c0,0 -22.544,-32.321 -25.362,-65.593c0,0 -11.272,19.013 -6.576,52.284c0,0 -16.908,-56.086 -54.481,-66.542c0,0 19.726,30.418 9.392,69.394c0,0 -32.877,-42.777 -13.151,-95.061c0,0 -34.755,31.37 -20.664,103.616c0,0 -14.091,-45.629 -43.211,-60.839c0,0 20.666,33.272 4.697,57.988c0,0 -30.059,-36.124 -11.272,-88.407c0,0 -30.06,5.704 -20.666,94.11c0,0 -14.09,-60.839 -39.453,-76.048c0,0 14.09,46.58 -0.939,72.245c0,0 0,-65.591 -42.27,-88.406c0,0 21.604,38.025 12.211,77c0,0 -21.605,-46.58 -57.3,-57.036c0,0 35.695,44.678 29.12,73.196c0,0 -47.908,-24.716 -42.271,-72.247c0,0 -15.969,33.272 -7.515,69.395c0,0 -24.423,-44.679 -23.484,-75.098c0,0 -9.394,35.172 0,73.196c0,0 -20.666,-77.949 -48.846,-90.307c0,0 25.363,56.086 16.909,92.209c0,0 -34.757,-55.136 -27.242,-111.221c0,0 -30.999,44.679 -17.847,120.727c0,0 -24.424,-78.901 -62.936,-95.06c0,0 26.301,50.382 25.361,82.703c0,0 -30.998,-24.716 -31.938,-57.988c0,0 -11.272,34.222 -4.696,62.74c0,0 -35.696,-57.037 -31.939,-91.258c0,0 -16.908,33.271 -7.514,74.147c0,0 -34.756,-25.667 -48.847,-55.134c0,0 -11.272,54.183 35.695,106.468Z" style="fill:#3b971e;fill-rule:nonzero;"/><path d="M626.291,168l-8.457,0l-1364.87,0c0,0 -21.604,-55.136 -4.696,-107.419c0,0 -0.939,45.629 24.422,71.295c0,0 -1.878,-61.79 24.424,-88.406c0,0 -8.454,65.591 4.697,83.653c0,0 25.363,-48.481 14.091,-91.258c0,0 29.12,31.369 30.998,81.752c0,0 -7.515,-50.383 16.908,-73.197c0,0 -7.514,65.592 9.394,79.851c0,0 0,-62.739 8.453,-79.851c0,0 2.819,73.197 23.485,85.554c0,0 -14.091,-76.047 15.969,-98.862c0,0 -9.394,67.492 5.635,93.159c0,0 -8.454,-50.382 -33.816,-73.196c0,0 26.302,4.752 45.088,56.085c0,0 2.819,-68.443 36.635,-76.048c0,0 -25.362,36.122 -6.576,68.443c0,0 -2.817,-47.53 16.91,-61.789c0,0 -8.455,56.086 7.514,76.049c0,0 -0.939,-42.778 12.212,-58.937c0,0 -3.758,46.578 11.272,67.492c0,0 -13.151,-68.443 32.877,-96.012c0,0 -28.18,59.889 -14.091,94.111c0,0 11.273,-52.284 -17.847,-94.111c0,0 37.575,5.704 36.635,90.308c0,0 0.94,-40.876 24.423,-56.085c0,0 -15.03,46.579 2.818,66.542c0,0 21.605,-50.383 -1.878,-92.209c0,0 30.058,30.42 30.058,85.555c0,0 -2.817,-59.888 15.969,-83.653c0,0 -6.575,57.036 5.637,81.752c0,0 8.454,-27.569 4.697,-61.79c0,0 22.544,9.506 17.847,68.444c0,0 -3.758,-57.988 27.241,-75.098c0,0 -22.544,48.48 -0.939,76.999c0,0 -6.576,-57.988 21.604,-96.011c0,0 -20.665,57.036 -4.696,94.11c0,0 11.094,-14.769 4.696,-49.432c0,0 18.788,19.963 18.788,56.086c0,0 13.15,-76.049 64.814,-105.518c0,0 -33.816,46.58 -30.998,101.716c0,0 19.726,-49.432 -0.941,-101.716c0,0 35.698,25.667 35.698,95.062c0,0 13.15,-71.296 36.633,-84.604c0,0 -16.907,50.381 -1.878,75.098c0,0 15.029,-19.964 11.272,-48.482c0,0 15.969,18.062 10.334,54.185c0,0 19.726,-72.246 56.359,-96.962c0,0 -23.483,63.69 -20.664,105.518c0,0 15.029,-47.531 49.785,-60.839c0,0 -18.787,36.122 -10.333,59.888c0,0 13.655,-36.771 -9.394,-64.641c0,0 21.606,8.554 28.181,52.283c0,0 6.576,-47.53 43.21,-64.642c0,0 -23.484,48.482 -14.09,92.21c0,0 27.241,-44.679 32.877,-77.951c0,0 6.575,22.815 0,52.284c0,0 32.878,-37.074 27.241,-76.999c0,0 15.969,44.679 1.879,93.159c0,0 30.059,-66.542 57.3,-82.703c0,0 -25.362,54.185 -17.847,84.605c0,0 22.544,-32.321 25.361,-65.593c0,0 11.273,19.013 6.576,52.284c0,0 16.909,-56.086 54.482,-66.542c0,0 -19.726,30.418 -9.393,69.394c0,0 32.877,-42.777 13.151,-95.061c0,0 34.756,31.37 20.665,103.616c0,0 14.091,-45.629 43.211,-60.839c0,0 -20.666,33.272 -4.697,57.988c0,0 30.059,-36.124 11.272,-88.407c0,0 30.059,5.704 20.666,94.11c0,0 14.09,-60.839 39.455,-76.048c0,0 -14.093,46.58 0.941,72.245c0,0 0,-65.591 42.264,-88.406c0,0 -21.608,38.025 -12.21,77c0,0 21.608,-46.58 57.297,-57.036c0,0 -35.689,44.678 -29.114,73.196c0,0 47.91,-24.716 42.264,-72.247c0,0 15.974,33.272 7.517,69.395c0,0 24.43,-44.679 23.489,-75.098c0,0 9.387,35.172 0,73.196c0,0 20.667,-77.949 48.84,-90.307c0,0 -25.361,56.086 -16.904,92.209c0,0 34.759,-55.136 27.243,-111.221c0,0 30.995,44.679 17.844,120.727c0,0 24.419,-78.901 62.942,-95.06c0,0 -26.302,50.382 -25.372,82.703c0,0 31.006,-24.716 31.947,-57.988c0,0 11.269,34.222 4.694,62.74c0,0 35.699,-57.037 31.935,-91.258c0,0 16.915,33.271 7.517,74.147c0,0 34.758,-25.667 48.85,-55.134c0,0 11.269,54.183 -35.7,106.468Z" style="fill:#007800;fill-rule:nonzero;"/></g></g><g id="Grass2" serif:id="Grass"><clipPath id="_clip3"><rect x="1324.88" y="0.375" width="290.617" height="167.625"/></clipPath><g clip-path="url(#_clip3)"><path d="M2009.25,147.72l-8.457,0l-1364.87,0c0,0 -21.605,-55.135 -4.697,-107.419c0,0 -0.939,45.628 24.424,71.295c0,0 -1.88,-61.789 24.423,-88.406c0,0 -8.454,65.592 4.697,83.654c0,0 25.362,-48.482 14.089,-91.259c0,0 29.121,31.37 31,81.752c0,0 -7.516,-50.382 16.908,-73.196c0,0 -7.515,65.591 9.393,79.85c0,0 0,-62.739 8.455,-79.85c0,0 2.817,73.196 23.483,85.554c0,0 -14.09,-76.048 15.969,-98.864c0,0 -9.394,67.494 5.637,93.16c0,0 -8.455,-50.381 -33.817,-73.196c0,0 26.302,4.752 45.089,56.085c0,0 2.817,-68.444 36.634,-76.049c0,0 -25.362,36.124 -6.576,68.444c0,0 -2.818,-47.529 16.909,-61.788c0,0 -8.455,56.085 7.514,76.047c0,0 -0.938,-42.777 12.212,-58.937c0,0 -3.757,46.58 11.273,67.493c0,0 -13.151,-68.443 32.876,-96.011c0,0 -28.18,59.888 -14.089,94.111c0,0 11.272,-52.284 -17.849,-94.111c0,0 37.575,5.703 36.635,90.308c0,0 0.94,-40.876 24.423,-56.086c0,0 -15.029,46.579 2.819,66.543c0,0 21.604,-50.382 -1.879,-92.21c0,0 30.06,30.42 30.06,85.556c0,0 -2.819,-59.889 15.968,-83.654c0,0 -6.576,57.036 5.636,81.752c0,0 8.454,-27.568 4.697,-61.79c0,0 22.544,9.507 17.848,68.444c0,0 -3.757,-57.987 27.241,-75.098c0,0 -22.545,48.481 -0.94,77c0,0 -6.575,-57.987 21.606,-96.013c0,0 -20.666,57.037 -4.697,94.111c0,0 11.094,-14.769 4.697,-49.431c0,0 18.786,19.962 18.786,56.085c0,0 13.151,-76.049 64.815,-105.517c0,0 -33.817,46.58 -30.998,101.715c0,0 19.726,-49.432 -0.939,-101.715c0,0 35.695,25.667 35.695,95.061c0,0 13.151,-71.296 36.634,-84.604c0,0 -16.908,50.382 -1.879,75.098c0,0 15.031,-19.964 11.273,-48.482c0,0 15.969,18.062 10.333,54.185c0,0 19.726,-72.246 56.361,-96.962c0,0 -23.484,63.69 -20.666,105.518c0,0 15.029,-47.531 49.786,-60.839c0,0 -18.788,36.123 -10.334,59.888c0,0 13.656,-36.77 -9.393,-64.641c0,0 21.605,8.556 28.181,52.284c0,0 6.575,-47.531 43.21,-64.642c0,0 -23.484,48.481 -14.091,92.209c0,0 27.242,-44.679 32.877,-77.95c0,0 6.576,22.814 0,52.283c0,0 32.878,-37.073 27.241,-76.998c0,0 15.97,44.677 1.879,93.159c0,0 30.06,-66.543 57.301,-82.703c0,0 -25.363,54.185 -17.848,84.604c0,0 22.545,-32.321 25.363,-65.592c0,0 11.272,19.012 6.575,52.284c0,0 16.908,-56.087 54.482,-66.543c0,0 -19.726,30.419 -9.393,69.394c0,0 32.877,-42.777 13.151,-95.061c0,0 34.755,31.371 20.666,103.617c0,0 14.089,-45.63 43.209,-60.839c0,0 -20.665,33.271 -4.697,57.987c0,0 30.06,-36.124 11.272,-88.407c0,0 30.06,5.704 20.666,94.111c0,0 14.091,-60.839 39.456,-76.049c0,0 -14.092,46.58 0.941,72.246c0,0 0,-65.592 42.263,-88.407c0,0 -21.607,38.025 -12.209,77c0,0 21.607,-46.58 57.296,-57.036c0,0 -35.689,44.677 -29.113,73.197c0,0 47.909,-24.717 42.264,-72.247c0,0 15.973,33.271 7.516,69.394c0,0 24.431,-44.678 23.49,-75.098c0,0 9.387,35.172 0,73.197c0,0 20.667,-77.949 48.839,-90.308c0,0 -25.36,56.086 -16.903,92.209c0,0 34.758,-55.134 27.242,-111.221c0,0 30.995,44.679 17.844,120.728c0,0 24.42,-78.901 62.942,-95.061c0,0 -26.301,50.382 -25.371,82.703c0,0 31.006,-24.716 31.946,-57.988c0,0 11.269,34.223 4.694,62.741c0,0 35.7,-57.036 31.936,-91.259c0,0 16.914,33.272 7.516,74.148c0,0 34.759,-25.667 48.85,-55.135c0,0 11.269,54.184 -35.699,106.468Z" style="fill:#214e32;fill-rule:nonzero;"/><path d="M623.36,168l1373.33,0c0,0 21.608,-55.136 4.694,-107.419c0,0 0.94,45.629 -24.42,71.295c0,0 1.882,-61.79 -24.42,-88.406c0,0 8.457,65.591 -4.704,83.653c0,0 -25.361,-48.481 -14.081,-91.258c0,0 -29.124,31.369 -31.006,81.752c0,0 7.516,-50.383 -16.903,-73.197c0,0 7.516,65.592 -9.398,79.851c0,0 0,-62.739 -8.446,-79.851c0,0 -2.823,73.197 -23.49,85.554c0,0 14.091,-76.047 -15.974,-98.862c0,0 9.398,67.492 -5.634,93.159c0,0 8.457,-50.382 33.818,-73.196c0,0 -26.302,4.752 -45.087,56.085c0,0 -2.823,-68.443 -36.629,-76.048c0,0 25.36,36.122 6.575,68.443c0,0 2.812,-47.53 -16.914,-61.789c0,0 8.457,56.086 -7.517,76.049c0,0 0.941,-42.778 -12.209,-58.937c0,0 3.763,46.578 -11.269,67.492c0,0 13.15,-68.443 -32.878,-96.012c0,0 28.184,59.889 14.092,94.111c0,0 -11.279,-52.284 17.845,-94.111c0,0 -37.571,5.704 -36.641,90.308c0,0 -0.93,-40.876 -24.419,-56.085c0,0 15.032,46.579 -2.812,66.542c0,0 -21.609,-50.383 1.871,-92.209c0,0 -30.055,30.42 -30.055,85.555c0,0 2.817,-59.888 -15.969,-83.653c0,0 6.575,57.036 -5.637,81.752c0,0 -8.454,-27.569 -4.697,-61.79c0,0 -22.544,9.506 -17.848,68.444c0,0 3.759,-57.988 -27.241,-75.098c0,0 22.545,48.48 0.94,76.999c0,0 6.575,-57.988 -21.606,-96.011c0,0 20.666,57.036 4.697,94.11c0,0 -11.094,-14.769 -4.697,-49.432c0,0 -18.786,19.963 -18.786,56.086c0,0 -13.151,-76.049 -64.815,-105.518c0,0 33.817,46.58 30.998,101.716c0,0 -19.726,-49.432 0.939,-101.716c0,0 -35.695,25.667 -35.695,95.062c0,0 -13.151,-71.296 -36.634,-84.604c0,0 16.908,50.381 1.879,75.098c0,0 -15.03,-19.964 -11.272,-48.482c0,0 -15.97,18.062 -10.334,54.185c0,0 -19.726,-72.246 -56.361,-96.962c0,0 23.484,63.69 20.666,105.518c0,0 -15.029,-47.531 -49.786,-60.839c0,0 18.788,36.122 10.334,59.888c0,0 -13.656,-36.771 9.393,-64.641c0,0 -21.605,8.554 -28.181,52.283c0,0 -6.575,-47.53 -43.21,-64.642c0,0 23.484,48.482 14.091,92.21c0,0 -27.242,-44.679 -32.877,-77.951c0,0 -6.576,22.815 0,52.284c0,0 -32.878,-37.074 -27.241,-76.999c0,0 -15.969,44.679 -1.879,93.159c0,0 -30.06,-66.542 -57.301,-82.703c0,0 25.363,54.185 17.848,84.605c0,0 -22.545,-32.321 -25.362,-65.593c0,0 -11.272,19.013 -6.576,52.284c0,0 -16.908,-56.086 -54.482,-66.542c0,0 19.726,30.418 9.393,69.394c0,0 -32.877,-42.777 -13.151,-95.061c0,0 -34.755,31.37 -20.665,103.616c0,0 -14.09,-45.629 -43.21,-60.839c0,0 20.666,33.272 4.697,57.988c0,0 -30.06,-36.124 -11.272,-88.407c0,0 -30.06,5.704 -20.666,94.11c0,0 -14.091,-60.839 -39.453,-76.048c0,0 14.09,46.58 -0.939,72.245c0,0 0,-65.591 -42.271,-88.406c0,0 21.605,38.025 12.211,77c0,0 -21.604,-46.58 -57.299,-57.036c0,0 35.695,44.678 29.119,73.196c0,0 -47.907,-24.716 -42.27,-72.247c0,0 -15.969,33.272 -7.515,69.395c0,0 -24.423,-44.679 -23.485,-75.098c0,0 -9.393,35.172 0,73.196c0,0 -20.665,-77.949 -48.845,-90.307c0,0 25.362,56.086 16.908,92.209c0,0 -34.756,-55.136 -27.241,-111.221c0,0 -30.999,44.679 -17.847,120.727c0,0 -24.424,-78.901 -62.937,-95.06c0,0 26.302,50.382 25.362,82.703c0,0 -30.998,-24.716 -31.938,-57.988c0,0 -11.272,34.222 -4.696,62.74c0,0 -35.696,-57.037 -31.939,-91.258c0,0 -16.908,33.271 -7.514,74.147c0,0 -34.757,-25.667 -48.847,-55.134c0,0 -11.272,54.183 35.695,106.468Z" style="fill:#3b971e;fill-rule:nonzero;"/><path d="M1996.1,168l-8.457,0l-1364.87,0c0,0 -21.604,-55.136 -4.697,-107.419c0,0 -0.938,45.629 24.423,71.295c0,0 -1.878,-61.79 24.424,-88.406c0,0 -8.455,65.591 4.697,83.653c0,0 25.363,-48.481 14.091,-91.258c0,0 29.119,31.369 30.998,81.752c0,0 -7.515,-50.383 16.908,-73.197c0,0 -7.514,65.592 9.393,79.851c0,0 0,-62.739 8.454,-79.851c0,0 2.818,73.197 23.484,85.554c0,0 -14.09,-76.047 15.969,-98.862c0,0 -9.393,67.492 5.636,93.159c0,0 -8.454,-50.382 -33.817,-73.196c0,0 26.303,4.752 45.089,56.085c0,0 2.819,-68.443 36.635,-76.048c0,0 -25.363,36.122 -6.576,68.443c0,0 -2.818,-47.53 16.91,-61.789c0,0 -8.455,56.086 7.514,76.049c0,0 -0.939,-42.778 12.212,-58.937c0,0 -3.758,46.578 11.272,67.492c0,0 -13.151,-68.443 32.877,-96.012c0,0 -28.18,59.889 -14.091,94.111c0,0 11.272,-52.284 -17.847,-94.111c0,0 37.574,5.704 36.635,90.308c0,0 0.939,-40.876 24.422,-56.085c0,0 -15.029,46.579 2.819,66.542c0,0 21.604,-50.383 -1.879,-92.209c0,0 30.059,30.42 30.059,85.555c0,0 -2.817,-59.888 15.969,-83.653c0,0 -6.576,57.036 5.636,81.752c0,0 8.454,-27.569 4.697,-61.79c0,0 22.545,9.506 17.848,68.444c0,0 -3.758,-57.988 27.241,-75.098c0,0 -22.544,48.48 -0.94,76.999c0,0 -6.575,-57.988 21.605,-96.011c0,0 -20.665,57.036 -4.696,94.11c0,0 11.094,-14.769 4.696,-49.432c0,0 18.787,19.963 18.787,56.086c0,0 13.151,-76.049 64.815,-105.518c0,0 -33.816,46.58 -30.998,101.716c0,0 19.726,-49.432 -0.941,-101.716c0,0 35.697,25.667 35.697,95.062c0,0 13.151,-71.296 36.634,-84.604c0,0 -16.908,50.381 -1.878,75.098c0,0 15.029,-19.964 11.272,-48.482c0,0 15.969,18.062 10.333,54.185c0,0 19.726,-72.246 56.36,-96.962c0,0 -23.483,63.69 -20.665,105.518c0,0 15.03,-47.531 49.786,-60.839c0,0 -18.787,36.122 -10.333,59.888c0,0 13.655,-36.771 -9.394,-64.641c0,0 21.606,8.554 28.181,52.283c0,0 6.575,-47.53 43.21,-64.642c0,0 -23.484,48.482 -14.09,92.21c0,0 27.241,-44.679 32.876,-77.951c0,0 6.576,22.815 0,52.284c0,0 32.878,-37.074 27.242,-76.999c0,0 15.969,44.679 1.878,93.159c0,0 30.06,-66.542 57.301,-82.703c0,0 -25.363,54.185 -17.847,84.605c0,0 22.544,-32.321 25.361,-65.593c0,0 11.272,19.013 6.575,52.284c0,0 16.909,-56.086 54.483,-66.542c0,0 -19.726,30.418 -9.394,69.394c0,0 32.878,-42.777 13.152,-95.061c0,0 34.755,31.37 20.665,103.616c0,0 14.09,-45.629 43.21,-60.839c0,0 -20.666,33.272 -4.697,57.988c0,0 30.06,-36.124 11.273,-88.407c0,0 30.059,5.704 20.665,94.11c0,0 14.091,-60.839 39.456,-76.048c0,0 -14.093,46.58 0.941,72.245c0,0 0,-65.591 42.264,-88.406c0,0 -21.608,38.025 -12.21,77c0,0 21.608,-46.58 57.296,-57.036c0,0 -35.688,44.678 -29.113,73.196c0,0 47.909,-24.716 42.264,-72.247c0,0 15.974,33.272 7.516,69.395c0,0 24.431,-44.679 23.49,-75.098c0,0 9.387,35.172 0,73.196c0,0 20.667,-77.949 48.839,-90.307c0,0 -25.36,56.086 -16.903,92.209c0,0 34.759,-55.136 27.242,-111.221c0,0 30.995,44.679 17.844,120.727c0,0 24.42,-78.901 62.942,-95.06c0,0 -26.301,50.382 -25.371,82.703c0,0 31.006,-24.716 31.947,-57.988c0,0 11.269,34.222 4.693,62.74c0,0 35.7,-57.037 31.936,-91.258c0,0 16.915,33.271 7.516,74.147c0,0 34.759,-25.667 48.851,-55.134c0,0 11.269,54.183 -35.7,106.468Z" style="fill:#007800;fill-rule:nonzero;"/></g></g></g></svg>